<svg width="24" height="24" viewBox="0 0 24 24" fill="none" xmlns="http://www.w3.org/2000/svg">
  <path d="M9 11C10.7 11 12 9.7 12 8C12 6.3 10.7 5 9 5C7.3 5 6 6.3 6 8C6 9.7 7.3 11 9 11Z" stroke="#333333" stroke-width="1.9" stroke-linecap="round" stroke-linejoin="round"/>
  <path d="M15 11C16.7 11 18 9.7 18 8C18 6.3 16.7 5 15 5" stroke="#FF7F9F" stroke-width="1.9" stroke-linecap="round" stroke-linejoin="round"/>
  <path d="M4.5 19C5.3 16.6 6.8 15.3 9 15.3C11.2 15.3 12.7 16.6 13.5 19" stroke="#333333" stroke-width="1.9" stroke-linecap="round" stroke-linejoin="round"/>
  <path d="M14 15.5C16.7 15.7 18.5 17 19.5 19" stroke="#FF7F9F" stroke-width="1.9" stroke-linecap="round" stroke-linejoin="round"/>
</svg>
