<svg width="24" height="24" viewBox="0 0 24 24" fill="none" xmlns="http://www.w3.org/2000/svg">
  <path d="M9 11C10.7 11 12 9.7 12 8C12 6.3 10.7 5 9 5C7.3 5 6 6.3 6 8C6 9.7 7.3 11 9 11Z" stroke="#333333" stroke-width="1.9" stroke-linecap="round" stroke-linejoin="round"/>
  <path d="M15.5 11C17 11 18 9.9 18 8.5C18 7.1 17 6 15.5 6" stroke="#FF7F9F" stroke-width="1.9" stroke-linecap="round" stroke-linejoin="round"/>
  <path d="M4.5 19C5.3 16.6 6.8 15.3 9 15.3C11.2 15.3 12.7 16.6 13.5 19" stroke="#333333" stroke-width="1.9" stroke-linecap="round" stroke-linejoin="round"/>
  <path d="M15 15.6C17 16 18.4 17.1 19.2 19" stroke="#FF7F9F" stroke-width="1.9" stroke-linecap="round" stroke-linejoin="round"/>
</svg>
